<?xml version="1.0" encoding="UTF-8" standalone="no"?>
<!DOCTYPE svg PUBLIC "-//W3C//DTD SVG 1.1//EN"
 "http://www.w3.org/Graphics/SVG/1.1/DTD/svg11.dtd">
<!-- Generated by graphviz version 7.1.0 (0)
 -->
<!-- Pages: 1 -->
<svg width="1154pt" height="615pt"
 viewBox="0.00 0.00 1154.49 614.96" xmlns="http://www.w3.org/2000/svg" xmlns:xlink="http://www.w3.org/1999/xlink">
<g id="graph0" class="graph" transform="scale(1 1) rotate(0) translate(4 610.96)">
<polygon fill="white" stroke="none" points="-4,4 -4,-610.96 1150.49,-610.96 1150.49,4 -4,4"/>
<!-- irsUoQFO -->
<g id="node1" class="node">
<title>irsUoQFO</title>
<g id="a_node1"><a xlink:title="OSSelot/root/usr/lib64/ld&#45;linux&#45;x86&#45;64.so.2">
<ellipse fill="none" stroke="#8080ff" stroke-width="2" cx="608.49" cy="-23" rx="87.18" ry="18"/>
<text text-anchor="middle" x="608.49" y="-19.3" font-family="Helvetica,sans-Serif" font-size="14.00">ld&#45;linux&#45;x86&#45;64.so.2</text>
</a>
</g>
</g>
<!-- DApdIvIj -->
<g id="node2" class="node">
<title>DApdIvIj</title>
<g id="a_node2"><a xlink:title="OSSelot/root/usr/lib64/libgpg&#45;error.so.0.38.0">
<ellipse fill="none" stroke="#8080ff" stroke-width="2" cx="516.49" cy="-210" rx="94.48" ry="18"/>
<text text-anchor="middle" x="516.49" y="-206.3" font-family="Helvetica,sans-Serif" font-size="14.00">libgpg&#45;error.so.0.38.0</text>
</a>
</g>
</g>
<!-- oMILFfiY -->
<g id="node5" class="node">
<title>oMILFfiY</title>
<g id="a_node5"><a xlink:title="OSSelot/root/usr/lib64/libc.so.6">
<ellipse fill="none" stroke="#8080ff" stroke-width="2" cx="608.49" cy="-117" rx="42.79" ry="18"/>
<text text-anchor="middle" x="608.49" y="-113.3" font-family="Helvetica,sans-Serif" font-size="14.00">libc.so.6</text>
</a>
</g>
</g>
<!-- DApdIvIj&#45;&gt;oMILFfiY -->
<g id="edge1" class="edge">
<title>DApdIvIj&#45;&gt;oMILFfiY</title>
<g id="a_edge1"><a xlink:title="OSSelot/root/usr/lib64/libgpg&#45;error.so.0.38.0 links with OSSelot/root/usr/lib64/libc.so.6">
<path fill="none" stroke="#8080ff" stroke-width="2" d="M534.23,-191.45C548.07,-177.77 567.48,-158.57 582.98,-143.24"/>
<polygon fill="#8080ff" stroke="#8080ff" stroke-width="2" points="585.25,-145.92 589.89,-136.4 580.32,-140.94 585.25,-145.92"/>
</a>
</g>
</g>
<!-- KpiBRNVS -->
<g id="node3" class="node">
<title>KpiBRNVS</title>
<g id="a_node3"><a xlink:title="OSSelot/root/usr/lib64/liblzma.so.5.8.1">
<ellipse fill="none" stroke="#8080ff" stroke-width="2" cx="700.49" cy="-210" rx="72.29" ry="18"/>
<text text-anchor="middle" x="700.49" y="-206.3" font-family="Helvetica,sans-Serif" font-size="14.00">liblzma.so.5.8.1</text>
</a>
</g>
</g>
<!-- KpiBRNVS&#45;&gt;oMILFfiY -->
<g id="edge2" class="edge">
<title>KpiBRNVS&#45;&gt;oMILFfiY</title>
<g id="a_edge2"><a xlink:title="OSSelot/root/usr/lib64/liblzma.so.5.8.1 links with OSSelot/root/usr/lib64/libc.so.6">
<path fill="none" stroke="#8080ff" stroke-width="2" d="M683.19,-191.88C669.4,-178.24 649.87,-158.93 634.24,-143.47"/>
<polygon fill="#8080ff" stroke="#8080ff" stroke-width="2" points="636.82,-141.1 627.25,-136.56 631.9,-146.08 636.82,-141.1"/>
</a>
</g>
</g>
<!-- yOcruDQH -->
<g id="node4" class="node">
<title>yOcruDQH</title>
<g id="a_node4"><a xlink:title="OSSelot/root/usr/lib64/libudev.so.1.7.8">
<ellipse fill="none" stroke="#8080ff" stroke-width="2" cx="71.49" cy="-303" rx="71.49" ry="18"/>
<text text-anchor="middle" x="71.49" y="-299.3" font-family="Helvetica,sans-Serif" font-size="14.00">libudev.so.1.7.8</text>
</a>
</g>
</g>
<!-- yOcruDQH&#45;&gt;irsUoQFO -->
<g id="edge5" class="edge">
<title>yOcruDQH&#45;&gt;irsUoQFO</title>
<g id="a_edge5"><a xlink:title="OSSelot/root/usr/lib64/libudev.so.1.7.8 links with OSSelot/root/usr/lib64/ld&#45;linux&#45;x86&#45;64.so.2">
<path fill="none" stroke="#8080ff" stroke-width="2" d="M55.35,-284.5C36.1,-261.45 9.08,-220.52 30.49,-192 89.99,-112.75 378.55,-58.72 524.13,-36.04"/>
<polygon fill="#8080ff" stroke="#8080ff" stroke-width="2" points="524.57,-39.51 533.92,-34.53 523.5,-32.59 524.57,-39.51"/>
</a>
</g>
</g>
<!-- yOcruDQH&#45;&gt;oMILFfiY -->
<g id="edge4" class="edge">
<title>yOcruDQH&#45;&gt;oMILFfiY</title>
<g id="a_edge4"><a xlink:title="OSSelot/root/usr/lib64/libudev.so.1.7.8 links with OSSelot/root/usr/lib64/libc.so.6">
<path fill="none" stroke="#8080ff" stroke-width="2" d="M58.57,-284.53C42.68,-260.77 20.49,-218.22 43.49,-192 76.81,-154.04 416.46,-129.56 552.55,-121.2"/>
<polygon fill="#8080ff" stroke="#8080ff" stroke-width="2" points="552.66,-124.7 562.43,-120.6 552.23,-117.71 552.66,-124.7"/>
</a>
</g>
</g>
<!-- yUwnKwpZ -->
<g id="node7" class="node">
<title>yUwnKwpZ</title>
<g id="a_node7"><a xlink:title="OSSelot/root/usr/lib64/libcap.so.2.66">
<ellipse fill="none" stroke="#8080ff" stroke-width="2" cx="117.49" cy="-210" rx="64.99" ry="18"/>
<text text-anchor="middle" x="117.49" y="-206.3" font-family="Helvetica,sans-Serif" font-size="14.00">libcap.so.2.66</text>
</a>
</g>
</g>
<!-- yOcruDQH&#45;&gt;yUwnKwpZ -->
<g id="edge3" class="edge">
<title>yOcruDQH&#45;&gt;yUwnKwpZ</title>
<g id="a_edge3"><a xlink:title="OSSelot/root/usr/lib64/libudev.so.1.7.8 links with OSSelot/root/usr/lib64/libcap.so.2.66">
<path fill="none" stroke="#8080ff" stroke-width="2" d="M80.36,-284.45C86.69,-271.95 95.34,-254.84 102.69,-240.28"/>
<polygon fill="#8080ff" stroke="#8080ff" stroke-width="2" points="105.74,-242.01 107.13,-231.5 99.49,-238.85 105.74,-242.01"/>
</a>
</g>
</g>
<!-- oMILFfiY&#45;&gt;irsUoQFO -->
<g id="edge6" class="edge">
<title>oMILFfiY&#45;&gt;irsUoQFO</title>
<g id="a_edge6"><a xlink:title="OSSelot/root/usr/lib64/libc.so.6 links with OSSelot/root/usr/lib64/ld&#45;linux&#45;x86&#45;64.so.2">
<path fill="none" stroke="#8080ff" stroke-width="2" d="M608.49,-98.26C608.49,-86 608.49,-69.35 608.49,-54.93"/>
<polygon fill="#8080ff" stroke="#8080ff" stroke-width="2" points="611.99,-55.03 608.49,-45.03 604.99,-55.03 611.99,-55.03"/>
</a>
</g>
</g>
<!-- EbzVNReU -->
<g id="node6" class="node">
<title>EbzVNReU</title>
<g id="a_node6"><a xlink:title="OSSelot/root/usr/libexec/bluetooth/bluetoothd">
<ellipse fill="none" stroke="#ff4040" stroke-width="2" cx="894.49" cy="-584" rx="51.99" ry="18"/>
<text text-anchor="middle" x="894.49" y="-580.3" font-family="Helvetica,sans-Serif" font-size="14.00">bluetoothd</text>
</a>
</g>
</g>
<!-- EbzVNReU&#45;&gt;yOcruDQH -->
<g id="edge9" class="edge">
<title>EbzVNReU&#45;&gt;yOcruDQH</title>
<g id="a_edge9"><a xlink:title="OSSelot/root/usr/libexec/bluetooth/bluetoothd links with OSSelot/root/usr/lib64/libudev.so.1.7.8">
<path fill="none" stroke="#bf609f" stroke-width="2" d="M857.53,-570.47C726.13,-525.92 281.13,-375.07 125.65,-322.36"/>
<polygon fill="#bf609f" stroke="#bf609f" stroke-width="2" points="127.13,-319.16 116.53,-319.27 124.88,-325.79 127.13,-319.16"/>
</a>
</g>
</g>
<!-- EbzVNReU&#45;&gt;oMILFfiY -->
<g id="edge10" class="edge">
<title>EbzVNReU&#45;&gt;oMILFfiY</title>
<g id="a_edge10"><a xlink:title="OSSelot/root/usr/libexec/bluetooth/bluetoothd links with OSSelot/root/usr/lib64/libc.so.6">
<path fill="none" stroke="#bf609f" stroke-width="2" d="M936.96,-572.78C1008.78,-552.67 1146.49,-500.71 1146.49,-398 1146.49,-398 1146.49,-398 1146.49,-302 1146.49,-246.94 1134.22,-224.11 1089.49,-192 1022.31,-143.76 776.54,-126.02 664.65,-120.35"/>
<polygon fill="#bf609f" stroke="#bf609f" stroke-width="2" points="664.87,-116.86 654.71,-119.86 664.53,-123.85 664.87,-116.86"/>
</a>
</g>
</g>
<!-- qwoLzTgh -->
<g id="node9" class="node">
<title>qwoLzTgh</title>
<g id="a_node9"><a xlink:title="OSSelot/root/usr/lib64/libglib&#45;2.0.so.0.8200.5">
<ellipse fill="none" stroke="#8080ff" stroke-width="2" cx="963.49" cy="-303" rx="96.68" ry="18"/>
<text text-anchor="middle" x="963.49" y="-299.3" font-family="Helvetica,sans-Serif" font-size="14.00">libglib&#45;2.0.so.0.8200.5</text>
</a>
</g>
</g>
<!-- EbzVNReU&#45;&gt;qwoLzTgh -->
<g id="edge7" class="edge">
<title>EbzVNReU&#45;&gt;qwoLzTgh</title>
<g id="a_edge7"><a xlink:title="OSSelot/root/usr/libexec/bluetooth/bluetoothd links with OSSelot/root/usr/lib64/libglib&#45;2.0.so.0.8200.5">
<path fill="none" stroke="#bf609f" stroke-width="2" d="M905.38,-565.5C914.08,-550.72 925.86,-528.71 932.49,-508 951.55,-448.49 959.03,-375.36 961.86,-334.81"/>
<polygon fill="#bf609f" stroke="#bf609f" stroke-width="2" points="965.35,-335.12 962.49,-324.92 958.36,-334.68 965.35,-335.12"/>
</a>
</g>
</g>
<!-- AkroDbtM -->
<g id="node13" class="node">
<title>AkroDbtM</title>
<g id="a_node13"><a xlink:title="OSSelot/root/usr/lib64/libdbus&#45;1.so.3.35.0">
<ellipse fill="none" stroke="#8080ff" stroke-width="2" cx="838.49" cy="-490" rx="85.29" ry="18"/>
<text text-anchor="middle" x="838.49" y="-486.3" font-family="Helvetica,sans-Serif" font-size="14.00">libdbus&#45;1.so.3.35.0</text>
</a>
</g>
</g>
<!-- EbzVNReU&#45;&gt;AkroDbtM -->
<g id="edge8" class="edge">
<title>EbzVNReU&#45;&gt;AkroDbtM</title>
<g id="a_edge8"><a xlink:title="OSSelot/root/usr/libexec/bluetooth/bluetoothd links with OSSelot/root/usr/lib64/libdbus&#45;1.so.3.35.0">
<path fill="none" stroke="#bf609f" stroke-width="2" d="M883.96,-565.7C876.03,-552.67 864.99,-534.54 855.78,-519.4"/>
<polygon fill="#bf609f" stroke="#bf609f" stroke-width="2" points="858.93,-517.85 850.74,-511.13 852.95,-521.49 858.93,-517.85"/>
</a>
</g>
</g>
<!-- yUwnKwpZ&#45;&gt;oMILFfiY -->
<g id="edge11" class="edge">
<title>yUwnKwpZ&#45;&gt;oMILFfiY</title>
<g id="a_edge11"><a xlink:title="OSSelot/root/usr/lib64/libcap.so.2.66 links with OSSelot/root/usr/lib64/libc.so.6">
<path fill="none" stroke="#8080ff" stroke-width="2" d="M166.38,-197.41C174.74,-195.53 183.36,-193.66 191.49,-192 322.02,-165.44 476.64,-139.41 555.89,-126.47"/>
<polygon fill="#8080ff" stroke="#8080ff" stroke-width="2" points="556.11,-129.98 565.42,-124.91 554.98,-123.07 556.11,-129.98"/>
</a>
</g>
</g>
<!-- ZdIPWHYo -->
<g id="node8" class="node">
<title>ZdIPWHYo</title>
<g id="a_node8"><a xlink:title="OSSelot/root/usr/lib64/libgcrypt.so.20.5.0">
<ellipse fill="none" stroke="#8080ff" stroke-width="2" cx="531.49" cy="-303" rx="81.79" ry="18"/>
<text text-anchor="middle" x="531.49" y="-299.3" font-family="Helvetica,sans-Serif" font-size="14.00">libgcrypt.so.20.5.0</text>
</a>
</g>
</g>
<!-- ZdIPWHYo&#45;&gt;DApdIvIj -->
<g id="edge12" class="edge">
<title>ZdIPWHYo&#45;&gt;DApdIvIj</title>
<g id="a_edge12"><a xlink:title="OSSelot/root/usr/lib64/libgcrypt.so.20.5.0 links with OSSelot/root/usr/lib64/libgpg&#45;error.so.0.38.0">
<path fill="none" stroke="#8080ff" stroke-width="2" d="M528.53,-284.02C526.54,-271.93 523.86,-255.69 521.54,-241.59"/>
<polygon fill="#8080ff" stroke="#8080ff" stroke-width="2" points="525.02,-241.23 519.94,-231.93 518.12,-242.36 525.02,-241.23"/>
</a>
</g>
</g>
<!-- ZdIPWHYo&#45;&gt;oMILFfiY -->
<g id="edge13" class="edge">
<title>ZdIPWHYo&#45;&gt;oMILFfiY</title>
<g id="a_edge13"><a xlink:title="OSSelot/root/usr/lib64/libgcrypt.so.20.5.0 links with OSSelot/root/usr/lib64/libc.so.6">
<path fill="none" stroke="#8080ff" stroke-width="2" d="M491.72,-286.54C447.72,-267.05 386.37,-231.3 413.49,-192 444.63,-146.88 507.15,-129.24 553.04,-122.37"/>
<polygon fill="#8080ff" stroke="#8080ff" stroke-width="2" points="553.35,-125.86 562.79,-121.06 552.42,-118.92 553.35,-125.86"/>
</a>
</g>
</g>
<!-- qwoLzTgh&#45;&gt;oMILFfiY -->
<g id="edge15" class="edge">
<title>qwoLzTgh&#45;&gt;oMILFfiY</title>
<g id="a_edge15"><a xlink:title="OSSelot/root/usr/lib64/libglib&#45;2.0.so.0.8200.5 links with OSSelot/root/usr/lib64/libc.so.6">
<path fill="none" stroke="#8080ff" stroke-width="2" d="M947.59,-284.28C922.42,-256.57 874.05,-204.85 852.49,-192 792.21,-156.05 712.99,-136.25 661.43,-126.38"/>
<polygon fill="#8080ff" stroke="#8080ff" stroke-width="2" points="662.39,-123 651.92,-124.63 661.12,-129.88 662.39,-123"/>
</a>
</g>
</g>
<!-- gvVjqnbS -->
<g id="node14" class="node">
<title>gvVjqnbS</title>
<g id="a_node14"><a xlink:title="OSSelot/root/usr/lib64/libpcre2&#45;8.so.0.14.0">
<ellipse fill="none" stroke="#8080ff" stroke-width="2" cx="992.49" cy="-210" rx="87.99" ry="18"/>
<text text-anchor="middle" x="992.49" y="-206.3" font-family="Helvetica,sans-Serif" font-size="14.00">libpcre2&#45;8.so.0.14.0</text>
</a>
</g>
</g>
<!-- qwoLzTgh&#45;&gt;gvVjqnbS -->
<g id="edge14" class="edge">
<title>qwoLzTgh&#45;&gt;gvVjqnbS</title>
<g id="a_edge14"><a xlink:title="OSSelot/root/usr/lib64/libglib&#45;2.0.so.0.8200.5 links with OSSelot/root/usr/lib64/libpcre2&#45;8.so.0.14.0">
<path fill="none" stroke="#8080ff" stroke-width="2" d="M969.09,-284.45C972.99,-272.2 978.31,-255.52 982.88,-241.15"/>
<polygon fill="#8080ff" stroke="#8080ff" stroke-width="2" points="986.2,-242.28 985.9,-231.69 979.53,-240.15 986.2,-242.28"/>
</a>
</g>
</g>
<!-- FfZkRHKf -->
<g id="node10" class="node">
<title>FfZkRHKf</title>
<g id="a_node10"><a xlink:title="OSSelot/root/usr/lib64/libsystemd.so.0.38.0">
<ellipse fill="none" stroke="#8080ff" stroke-width="2" cx="587.49" cy="-397" rx="90.98" ry="18"/>
<text text-anchor="middle" x="587.49" y="-393.3" font-family="Helvetica,sans-Serif" font-size="14.00">libsystemd.so.0.38.0</text>
</a>
</g>
</g>
<!-- FfZkRHKf&#45;&gt;irsUoQFO -->
<g id="edge22" class="edge">
<title>FfZkRHKf&#45;&gt;irsUoQFO</title>
<g id="a_edge22"><a xlink:title="OSSelot/root/usr/lib64/libsystemd.so.0.38.0 links with OSSelot/root/usr/lib64/ld&#45;linux&#45;x86&#45;64.so.2">
<path fill="none" stroke="#8080ff" stroke-width="2" d="M678.16,-393.81C801.88,-388.88 1014.53,-372.89 1069.49,-321 1100.24,-291.98 1085.02,-270.04 1089.49,-228 1091.19,-212.09 1098.76,-205.05 1089.49,-192 1003.21,-70.47 822.11,-36.14 708.41,-26.87"/>
<polygon fill="#8080ff" stroke="#8080ff" stroke-width="2" points="708.82,-23.39 698.59,-26.13 708.3,-30.37 708.82,-23.39"/>
</a>
</g>
</g>
<!-- FfZkRHKf&#45;&gt;KpiBRNVS -->
<g id="edge19" class="edge">
<title>FfZkRHKf&#45;&gt;KpiBRNVS</title>
<g id="a_edge19"><a xlink:title="OSSelot/root/usr/lib64/libsystemd.so.0.38.0 links with OSSelot/root/usr/lib64/liblzma.so.5.8.1">
<path fill="none" stroke="#8080ff" stroke-width="2" d="M598.33,-378.26C617.9,-346.22 659.32,-278.41 682.97,-239.7"/>
<polygon fill="#8080ff" stroke="#8080ff" stroke-width="2" points="685.89,-241.63 688.11,-231.27 679.91,-237.98 685.89,-241.63"/>
</a>
</g>
</g>
<!-- FfZkRHKf&#45;&gt;oMILFfiY -->
<g id="edge21" class="edge">
<title>FfZkRHKf&#45;&gt;oMILFfiY</title>
<g id="a_edge21"><a xlink:title="OSSelot/root/usr/lib64/libsystemd.so.0.38.0 links with OSSelot/root/usr/lib64/libc.so.6">
<path fill="none" stroke="#8080ff" stroke-width="2" d="M620.21,-379.45C666.25,-354.07 748.26,-300.74 781.49,-228 806.92,-172.35 720.21,-141.84 660.48,-127.8"/>
<polygon fill="#8080ff" stroke="#8080ff" stroke-width="2" points="661.3,-124.4 650.78,-125.63 659.78,-131.23 661.3,-124.4"/>
</a>
</g>
</g>
<!-- FfZkRHKf&#45;&gt;yUwnKwpZ -->
<g id="edge16" class="edge">
<title>FfZkRHKf&#45;&gt;yUwnKwpZ</title>
<g id="a_edge16"><a xlink:title="OSSelot/root/usr/lib64/libsystemd.so.0.38.0 links with OSSelot/root/usr/lib64/libcap.so.2.66">
<path fill="none" stroke="#8080ff" stroke-width="2" d="M508.62,-387.26C440.85,-377.57 341.81,-358.14 262.49,-321 216.62,-299.52 171.34,-261.81 143.9,-236.61"/>
<polygon fill="#8080ff" stroke="#8080ff" stroke-width="2" points="146.53,-234.29 136.84,-230.02 141.75,-239.4 146.53,-234.29"/>
</a>
</g>
</g>
<!-- FfZkRHKf&#45;&gt;ZdIPWHYo -->
<g id="edge17" class="edge">
<title>FfZkRHKf&#45;&gt;ZdIPWHYo</title>
<g id="a_edge17"><a xlink:title="OSSelot/root/usr/lib64/libsystemd.so.0.38.0 links with OSSelot/root/usr/lib64/libgcrypt.so.20.5.0">
<path fill="none" stroke="#8080ff" stroke-width="2" d="M576.7,-378.26C568.79,-365.28 557.91,-347.39 548.8,-332.43"/>
<polygon fill="#8080ff" stroke="#8080ff" stroke-width="2" points="552.02,-330.99 543.83,-324.27 546.04,-334.63 552.02,-330.99"/>
</a>
</g>
</g>
<!-- WPYCGaAm -->
<g id="node11" class="node">
<title>WPYCGaAm</title>
<g id="a_node11"><a xlink:title="OSSelot/root/usr/lib64/liblz4.so.1.9.4">
<ellipse fill="none" stroke="#8080ff" stroke-width="2" cx="264.49" cy="-210" rx="64.19" ry="18"/>
<text text-anchor="middle" x="264.49" y="-206.3" font-family="Helvetica,sans-Serif" font-size="14.00">liblz4.so.1.9.4</text>
</a>
</g>
</g>
<!-- FfZkRHKf&#45;&gt;WPYCGaAm -->
<g id="edge18" class="edge">
<title>FfZkRHKf&#45;&gt;WPYCGaAm</title>
<g id="a_edge18"><a xlink:title="OSSelot/root/usr/lib64/libsystemd.so.0.38.0 links with OSSelot/root/usr/lib64/liblz4.so.1.9.4">
<path fill="none" stroke="#8080ff" stroke-width="2" d="M510.43,-386.64C430.8,-375.35 313.97,-353.72 283.49,-321 263.86,-299.92 260.62,-266.23 261.36,-241.68"/>
<polygon fill="#8080ff" stroke="#8080ff" stroke-width="2" points="264.84,-242 261.94,-231.81 257.86,-241.59 264.84,-242"/>
</a>
</g>
</g>
<!-- evlbdVEO -->
<g id="node12" class="node">
<title>evlbdVEO</title>
<g id="a_node12"><a xlink:title="OSSelot/root/usr/lib64/libzstd.so.1.5.6">
<ellipse fill="none" stroke="#8080ff" stroke-width="2" cx="362.49" cy="-303" rx="69.59" ry="18"/>
<text text-anchor="middle" x="362.49" y="-299.3" font-family="Helvetica,sans-Serif" font-size="14.00">libzstd.so.1.5.6</text>
</a>
</g>
</g>
<!-- FfZkRHKf&#45;&gt;evlbdVEO -->
<g id="edge20" class="edge">
<title>FfZkRHKf&#45;&gt;evlbdVEO</title>
<g id="a_edge20"><a xlink:title="OSSelot/root/usr/lib64/libsystemd.so.0.38.0 links with OSSelot/root/usr/lib64/libzstd.so.1.5.6">
<path fill="none" stroke="#8080ff" stroke-width="2" d="M548.04,-379.87C509.93,-364.28 452.1,-340.64 411.15,-323.89"/>
<polygon fill="#8080ff" stroke="#8080ff" stroke-width="2" points="412.67,-320.73 402.09,-320.19 410.02,-327.21 412.67,-320.73"/>
</a>
</g>
</g>
<!-- WPYCGaAm&#45;&gt;oMILFfiY -->
<g id="edge23" class="edge">
<title>WPYCGaAm&#45;&gt;oMILFfiY</title>
<g id="a_edge23"><a xlink:title="OSSelot/root/usr/lib64/liblz4.so.1.9.4 links with OSSelot/root/usr/lib64/libc.so.6">
<path fill="none" stroke="#8080ff" stroke-width="2" d="M310.89,-196.73C375.88,-179.54 493.47,-148.43 559.72,-130.9"/>
<polygon fill="#8080ff" stroke="#8080ff" stroke-width="2" points="560.56,-134.3 569.33,-128.36 558.76,-127.53 560.56,-134.3"/>
</a>
</g>
</g>
<!-- evlbdVEO&#45;&gt;oMILFfiY -->
<g id="edge24" class="edge">
<title>evlbdVEO&#45;&gt;oMILFfiY</title>
<g id="a_edge24"><a xlink:title="OSSelot/root/usr/lib64/libzstd.so.1.5.6 links with OSSelot/root/usr/lib64/libc.so.6">
<path fill="none" stroke="#8080ff" stroke-width="2" d="M364.47,-284.29C368.07,-260.25 377.85,-217.38 403.49,-192 444.21,-151.7 508.48,-133.18 554.19,-124.78"/>
<polygon fill="#8080ff" stroke="#8080ff" stroke-width="2" points="554.6,-128.26 563.87,-123.13 553.42,-121.36 554.6,-128.26"/>
</a>
</g>
</g>
<!-- AkroDbtM&#45;&gt;oMILFfiY -->
<g id="edge26" class="edge">
<title>AkroDbtM&#45;&gt;oMILFfiY</title>
<g id="a_edge26"><a xlink:title="OSSelot/root/usr/lib64/libdbus&#45;1.so.3.35.0 links with OSSelot/root/usr/lib64/libc.so.6">
<path fill="none" stroke="#8080ff" stroke-width="2" d="M841.66,-471.28C849.54,-421.33 864.83,-277.45 797.49,-192 765.01,-150.78 706.35,-132.47 662.96,-124.37"/>
<polygon fill="#8080ff" stroke="#8080ff" stroke-width="2" points="663.75,-120.96 653.3,-122.72 662.57,-127.86 663.75,-120.96"/>
</a>
</g>
</g>
<!-- AkroDbtM&#45;&gt;FfZkRHKf -->
<g id="edge25" class="edge">
<title>AkroDbtM&#45;&gt;FfZkRHKf</title>
<g id="a_edge25"><a xlink:title="OSSelot/root/usr/lib64/libdbus&#45;1.so.3.35.0 links with OSSelot/root/usr/lib64/libsystemd.so.0.38.0">
<path fill="none" stroke="#8080ff" stroke-width="2" d="M795.91,-473.56C753.76,-458.28 689.02,-434.81 642.89,-418.08"/>
<polygon fill="#8080ff" stroke="#8080ff" stroke-width="2" points="644.14,-414.82 633.55,-414.7 641.76,-421.4 644.14,-414.82"/>
</a>
</g>
</g>
<!-- gvVjqnbS&#45;&gt;oMILFfiY -->
<g id="edge27" class="edge">
<title>gvVjqnbS&#45;&gt;oMILFfiY</title>
<g id="a_edge27"><a xlink:title="OSSelot/root/usr/lib64/libpcre2&#45;8.so.0.14.0 links with OSSelot/root/usr/lib64/libc.so.6">
<path fill="none" stroke="#8080ff" stroke-width="2" d="M935.42,-195.47C860.38,-177.69 729.76,-146.74 658.45,-129.84"/>
<polygon fill="#8080ff" stroke="#8080ff" stroke-width="2" points="659.33,-126.45 648.79,-127.55 657.72,-133.26 659.33,-126.45"/>
</a>
</g>
</g>
</g>
</svg>
